<svg width="28" height="29" viewBox="0 0 28 29" fill="none" xmlns="http://www.w3.org/2000/svg">
<path d="M5.00002 24.1586C4.99854 23.8156 5.06736 23.4757 5.20252 23.1586C5.33768 22.8414 5.5365 22.5533 5.78752 22.3107C6.03853 22.0682 6.33677 21.8761 6.66502 21.7455C6.99327 21.6149 7.34503 21.5484 7.70002 21.5499H23V4.15859H7.70002C7.34503 4.15715 6.99327 4.22365 6.66502 4.35424C6.33677 4.48483 6.03853 4.67693 5.78752 4.91945C5.5365 5.16198 5.33768 5.45013 5.20252 5.76728C5.06736 6.08443 4.99854 6.4243 5.00002 6.76728V24.1586Z" stroke="#23C0F7" stroke-width="2" stroke-linecap="round" stroke-linejoin="round"/>
<path d="M5 24.1586V25.1586H21" stroke="#23C0F7" stroke-width="2" stroke-linecap="round" stroke-linejoin="round"/>
</svg>
