<svg width="20" height="27" viewBox="0 0 20 27" fill="none" xmlns="http://www.w3.org/2000/svg">
<path d="M5 25.1586H16" stroke="#FFB545" stroke-width="2" stroke-linecap="round" stroke-linejoin="round"/>
<path d="M10 21.1586V15.1586" stroke="#FFB545" stroke-width="2" stroke-linecap="round" stroke-linejoin="round"/>
<path d="M6 11.1586L10 15.1586L14 11.1586" stroke="#FFB545" stroke-width="2" stroke-linecap="round" stroke-linejoin="round"/>
<path d="M4.45392 17.409C3.38244 16.5676 2.51462 15.4909 1.91623 14.2606C1.31783 13.0302 1.00454 11.6785 1.0001 10.3077C0.977596 5.37649 4.90392 1.27475 9.78652 1.16112C11.6762 1.11588 13.532 1.67265 15.0907 2.75247C16.6495 3.83229 17.832 5.38034 18.4707 7.17708C19.1093 8.97381 19.1717 10.928 18.6489 12.7625C18.126 14.5971 17.0446 16.2188 15.5579 17.3977C15.2295 17.6541 14.9635 17.9829 14.7802 18.359C14.5969 18.7352 14.5012 19.1486 14.5004 19.5679V20.2496C14.5004 20.4907 14.4055 20.7219 14.2368 20.8923C14.068 21.0628 13.839 21.1586 13.6003 21.1586H6.4002C6.16151 21.1586 5.93258 21.0628 5.7638 20.8923C5.59501 20.7219 5.50019 20.4907 5.50019 20.2496V19.5679C5.49737 19.1518 5.40186 18.7417 5.22074 18.368C5.03962 17.9943 4.77754 17.6665 4.45392 17.409V17.409Z" stroke="#FFB545" stroke-width="2" stroke-linecap="round" stroke-linejoin="round"/>
</svg>
