<svg width="26" height="18" viewBox="0 0 26 18" fill="none" xmlns="http://www.w3.org/2000/svg">
<path d="M18 2.15859H22.6594C22.8337 2.15729 23.0043 2.21629 23.1488 2.32784C23.2932 2.43938 23.4048 2.59826 23.4688 2.78359L25 7.15857" stroke="#A76FD2" stroke-width="1.5" stroke-linecap="round" stroke-linejoin="round"/>
<path d="M1 9.15857H18" stroke="#A76FD2" stroke-width="1.5" stroke-linecap="round" stroke-linejoin="round"/>
<path d="M19.5 17.1586C20.8807 17.1586 22 16.0393 22 14.6586C22 13.2779 20.8807 12.1586 19.5 12.1586C18.1193 12.1586 17 13.2779 17 14.6586C17 16.0393 18.1193 17.1586 19.5 17.1586Z" stroke="#A76FD2" stroke-width="1.5" stroke-linecap="round" stroke-linejoin="round"/>
<path d="M6.5 17.1586C7.88071 17.1586 9 16.0393 9 14.6586C9 13.2779 7.88071 12.1586 6.5 12.1586C5.11929 12.1586 4 13.2779 4 14.6586C4 16.0393 5.11929 17.1586 6.5 17.1586Z" stroke="#A76FD2" stroke-width="1.5" stroke-linecap="round" stroke-linejoin="round"/>
<path d="M17 14.1586H9" stroke="#A76FD2" stroke-width="1.5" stroke-linecap="round" stroke-linejoin="round"/>
<path d="M3.975 14.1586H1.85C1.62457 14.1586 1.40837 14.073 1.24896 13.9206C1.08955 13.7682 1 13.5616 1 13.3461V1.97107C1 1.75558 1.08955 1.54892 1.24896 1.39655C1.40837 1.24417 1.62457 1.15857 1.85 1.15857H18V12.0461" stroke="#A76FD2" stroke-width="1.5" stroke-linecap="round" stroke-linejoin="round"/>
<path d="M18 7.15857H25V13.3808C25 13.5871 24.9078 13.7849 24.7437 13.9308C24.5796 14.0766 24.3571 14.1586 24.125 14.1586H21.9375" stroke="#A76FD2" stroke-width="1.5" stroke-linecap="round" stroke-linejoin="round"/>
</svg>
