<svg width="29" height="28" viewBox="0 0 29 28" fill="none" xmlns="http://www.w3.org/2000/svg">
<path d="M15.3823 21C18.9722 21 21.8823 18.0899 21.8823 14.5C21.8823 10.9101 18.9722 8 15.3823 8C11.7925 8 8.88232 10.9101 8.88232 14.5C8.88232 18.0899 11.7925 21 15.3823 21Z" stroke="#2FCF3F" stroke-width="2" stroke-linecap="round" stroke-linejoin="round"/>
<path d="M22.0945 5.85558C22.4225 6.1577 22.7333 6.46846 23.0267 6.78785L26.5616 7.29283C27.1376 8.29309 27.5815 9.36375 27.8823 10.4781L25.7329 13.3396C25.7329 13.3396 25.7718 14.2201 25.7329 14.6604L27.8823 17.5219C27.5829 18.6367 27.1389 19.7076 26.5616 20.7072L23.0267 21.2122C23.0267 21.2122 22.4182 21.8466 22.0945 22.1444L21.5895 25.6793C20.5892 26.2552 19.5186 26.6992 18.4042 27L15.5427 24.8506C15.1033 24.8895 14.6613 24.8895 14.222 24.8506L11.3604 27C10.2456 26.7006 9.17476 26.2566 8.17515 25.6793L7.67017 22.1444C7.35078 21.8423 7.04003 21.5315 6.7379 21.2122L3.20304 20.7072C2.62708 19.7069 2.18315 18.6362 1.88232 17.5219L4.03173 14.6604C4.03173 14.6604 3.99288 13.7799 4.03173 13.3396L1.88232 10.4781C2.18175 9.36328 2.62576 8.29243 3.20304 7.29283L6.7379 6.78785C7.04003 6.46846 7.35078 6.1577 7.67017 5.85558L8.17515 2.32072C9.17541 1.74476 10.2461 1.30082 11.3604 1L14.222 3.1494C14.6613 3.11055 15.1033 3.11055 15.5427 3.1494L18.4042 1C19.519 1.29943 20.5899 1.74344 21.5895 2.32072L22.0945 5.85558Z" stroke="#2FCF3F" stroke-width="2" stroke-linecap="round" stroke-linejoin="round"/>
</svg>
