<svg width="22" height="23" viewBox="0 0 22 23" fill="none" xmlns="http://www.w3.org/2000/svg">
<path d="M13.7273 20.2756V14.9775C13.7273 14.7433 13.6315 14.5187 13.461 14.3531C13.2905 14.1875 13.0593 14.0945 12.8182 14.0945H9.18182C8.94071 14.0945 8.70948 14.1875 8.53899 14.3531C8.36851 14.5187 8.27273 14.7433 8.27273 14.9775V20.2756C8.27273 20.5097 8.17695 20.7343 8.00646 20.8999C7.83597 21.0655 7.60474 21.1586 7.36364 21.1586H1.90909C1.66799 21.1586 1.43675 21.0655 1.26627 20.8999C1.09578 20.7343 1 20.5097 1 20.2756V10.0657C1.00204 9.9435 1.02922 9.82292 1.07997 9.71108C1.13071 9.59924 1.20397 9.49839 1.29545 9.41448L10.3864 1.39008C10.554 1.24116 10.7729 1.15857 11 1.15857C11.2271 1.15857 11.446 1.24116 11.6136 1.39008L20.7045 9.41448C20.796 9.49839 20.8693 9.59924 20.92 9.71108C20.9708 9.82292 20.998 9.9435 21 10.0657V20.2756C21 20.5097 20.9042 20.7343 20.7337 20.8999C20.5632 21.0655 20.332 21.1586 20.0909 21.1586H14.6364C14.3953 21.1586 14.164 21.0655 13.9935 20.8999C13.8231 20.7343 13.7273 20.5097 13.7273 20.2756Z" stroke="#38CEC5" stroke-width="2" stroke-linecap="round" stroke-linejoin="round"/>
</svg>
