<svg width="26" height="27" viewBox="0 0 26 27" fill="none" xmlns="http://www.w3.org/2000/svg">
<path d="M2.85714 11.1586H8V21.1586H2.85714C2.62981 21.1586 2.4118 21.0775 2.25105 20.9333C2.09031 20.789 2 20.5934 2 20.3893V11.9278C2 11.7238 2.09031 11.5281 2.25105 11.3839C2.4118 11.2396 2.62981 11.1586 2.85714 11.1586V11.1586Z" stroke="#BC7964" stroke-width="2" stroke-linecap="round" stroke-linejoin="round"/>
<path d="M8 10.4194L12.0043 2.15857C12.8539 2.15857 13.6687 2.5067 14.2695 3.12639C14.8702 3.74608 15.2077 4.58655 15.2077 5.46292V7.94118H21.4044C21.6315 7.9406 21.8561 7.99016 22.0631 8.08653C22.2701 8.1829 22.4547 8.32385 22.6045 8.49992C22.7543 8.67598 22.8659 8.88307 22.9317 9.10729C22.9975 9.33151 23.0161 9.56766 22.9861 9.79987L21.7848 19.7129C21.7362 20.1109 21.5489 20.477 21.2579 20.743C20.9668 21.009 20.5919 21.1567 20.2031 21.1586H8" stroke="#BC7964" stroke-width="2" stroke-linecap="round" stroke-linejoin="round"/>
</svg>
