<svg width="24" height="22" viewBox="0 0 24 22" fill="none" xmlns="http://www.w3.org/2000/svg">
<path d="M23 2.59089V18.7263C23.0001 18.8705 22.9673 19.0128 22.9041 19.142C22.8408 19.2712 22.7489 19.3836 22.6356 19.4705C22.5223 19.5575 22.3907 19.6164 22.2511 19.6428C22.1115 19.6692 21.9678 19.6623 21.8312 19.6227L1.66459 13.6505C1.47295 13.5948 1.3044 13.4772 1.18448 13.3154C1.06455 13.1536 0.999792 12.9566 1 12.7541V8.56307C0.999792 8.36056 1.06455 8.16349 1.18448 8.00174C1.3044 7.83998 1.47295 7.72235 1.66459 7.66666L21.8312 1.69448C21.9678 1.65481 22.1115 1.6479 22.2511 1.67429C22.3907 1.70069 22.5223 1.75967 22.6356 1.84659C22.7489 1.9335 22.8408 2.04598 22.9041 2.17514C22.9673 2.30431 23.0001 2.44663 23 2.59089Z" stroke="#FF80AD" stroke-width="2" stroke-linecap="round" stroke-linejoin="round"/>
<path d="M6 15.5352V19.7334C6 19.9787 6.0878 20.2141 6.24408 20.3876C6.40036 20.5611 6.61232 20.6586 6.83333 20.6586H10.1667C10.3877 20.6586 10.5996 20.5611 10.7559 20.3876C10.9122 20.2141 11 19.9787 11 19.7334V5.65857" stroke="#FF80AD" stroke-width="2" stroke-linecap="round" stroke-linejoin="round"/>
</svg>
