<svg width="30" height="31" viewBox="0 0 30 31" fill="none" xmlns="http://www.w3.org/2000/svg">
<path d="M5.10577 25.0528C3.86731 23.8143 4.68846 21.2163 4.05577 19.6951C3.42308 18.174 1 16.8413 1 15.1586C1 13.4759 3.39615 12.197 4.05577 10.622C4.71538 9.04703 3.86731 6.5028 5.10577 5.26434C6.34423 4.02588 8.94231 4.84703 10.4635 4.21434C11.9846 3.58165 13.3173 1.15857 15 1.15857C16.6827 1.15857 17.9615 3.55472 19.5365 4.21434C21.1115 4.87395 23.6558 4.02588 24.8942 5.26434C26.1327 6.5028 25.3115 9.10088 25.9442 10.622C26.5769 12.1432 29 13.4759 29 15.1586C29 16.8413 26.6038 18.1201 25.9442 19.6951C25.2846 21.2701 26.1327 23.8143 24.8942 25.0528C23.6558 26.2913 21.0577 25.4701 19.5365 26.1028C18.0154 26.7355 16.6827 29.1586 15 29.1586C13.3173 29.1586 12.0385 26.7624 10.4635 26.1028C8.88846 25.4432 6.34423 26.2913 5.10577 25.0528Z" stroke="#928EF2" stroke-width="2" stroke-linecap="round" stroke-linejoin="round"/>
<path d="M19 11.1586L11 19.1586" stroke="#928EF2" stroke-width="2" stroke-linecap="round" stroke-linejoin="round"/>
<path d="M12 13.1586C12.5523 13.1586 13 12.7109 13 12.1586C13 11.6063 12.5523 11.1586 12 11.1586C11.4477 11.1586 11 11.6063 11 12.1586C11 12.7109 11.4477 13.1586 12 13.1586Z" stroke="#928EF2" stroke-width="2" stroke-linecap="round" stroke-linejoin="round"/>
<path d="M18 19.1586C18.5523 19.1586 19 18.7109 19 18.1586C19 17.6063 18.5523 17.1586 18 17.1586C17.4477 17.1586 17 17.6063 17 18.1586C17 18.7109 17.4477 19.1586 18 19.1586Z" stroke="#928EF2" stroke-width="2" stroke-linecap="round" stroke-linejoin="round"/>
</svg>
