<svg width="95" height="45" viewBox="0 0 95 45" fill="none" xmlns="http://www.w3.org/2000/svg">
<path d="M41.0805 2.77336V42.3734C41.0805 42.9568 40.8437 43.5164 40.4221 43.929C40.0006 44.3416 39.4289 44.5734 38.8327 44.5734C38.2366 44.5734 37.6649 44.3416 37.2433 43.929C36.8218 43.5164 36.585 42.9568 36.585 42.3734V2.77336C36.585 2.18989 36.8218 1.63031 37.2433 1.21773C37.6649 0.80515 38.2366 0.573364 38.8327 0.573364C39.4289 0.573364 40.0006 0.80515 40.4221 1.21773C40.8437 1.63031 41.0805 2.18989 41.0805 2.77336ZM64.6819 17.7609L59.0625 19.5484V13.7734C59.0625 13.1899 58.8257 12.6303 58.4042 12.2177C57.9827 11.8052 57.4109 11.5734 56.8148 11.5734C56.2186 11.5734 55.6469 11.8052 55.2254 12.2177C54.8038 12.6303 54.567 13.1899 54.567 13.7734V19.5484L48.9476 17.7609C48.6693 17.6671 48.3745 17.6291 48.0809 17.6493C47.7872 17.6694 47.5007 17.7473 47.2385 17.8782C46.9763 18.0091 46.7437 18.1903 46.5546 18.4111C46.3655 18.632 46.2238 18.8878 46.1379 19.1634C46.0418 19.4376 46.0027 19.728 46.0229 20.0173C46.0432 20.3066 46.1225 20.589 46.256 20.8479C46.3895 21.1067 46.5747 21.3368 46.8005 21.5245C47.0263 21.7122 47.2883 21.8538 47.5709 21.9409L53.1903 23.7284L49.7063 28.4034C49.5321 28.6378 49.4069 28.9037 49.3381 29.1856C49.2692 29.4676 49.2579 29.76 49.3049 30.0463C49.3519 30.3325 49.4563 30.6068 49.6119 30.8534C49.7676 31.1 49.9715 31.3141 50.212 31.4834C50.6983 31.8206 51.3003 31.9576 51.8887 31.865C52.4772 31.7725 53.005 31.4577 53.3589 30.9884L56.8148 26.3134L60.2707 30.9884C60.6246 31.4577 61.1524 31.7725 61.7408 31.865C62.3293 31.9576 62.9313 31.8206 63.4176 31.4834C63.6581 31.3141 63.862 31.1 64.0176 30.8534C64.1733 30.6068 64.2776 30.3325 64.3246 30.0463C64.3716 29.76 64.3604 29.4676 64.2915 29.1856C64.2226 28.9037 64.0975 28.6378 63.9233 28.4034L60.4393 23.7284L66.0587 21.9409C66.3413 21.8538 66.6032 21.7122 66.8291 21.5245C67.0549 21.3368 67.24 21.1067 67.3736 20.8479C67.5071 20.589 67.5864 20.3066 67.6067 20.0173C67.6269 19.728 67.5878 19.4376 67.4916 19.1634C67.4058 18.8878 67.2641 18.632 67.075 18.4111C66.8859 18.1903 66.6533 18.0091 66.3911 17.8782C66.1288 17.7473 65.8423 17.6694 65.5487 17.6493C65.2551 17.6291 64.9603 17.6671 64.6819 17.7609ZM94.4647 19.1634C94.3789 18.8878 94.2372 18.632 94.0481 18.4111C93.859 18.1903 93.6264 18.0091 93.3642 17.8782C93.1019 17.7473 92.8155 17.6694 92.5218 17.6493C92.2282 17.6291 91.9334 17.6671 91.655 17.7609L86.0357 19.5484V13.7734C86.0357 13.1899 85.7988 12.6303 85.3773 12.2177C84.9558 11.8052 84.384 11.5734 83.7879 11.5734C83.1917 11.5734 82.62 11.8052 82.1985 12.2177C81.7769 12.6303 81.5401 13.1899 81.5401 13.7734V19.5484L75.9207 17.7609C75.6424 17.6671 75.3476 17.6291 75.054 17.6493C74.7603 17.6694 74.4738 17.7473 74.2116 17.8782C73.9494 18.0091 73.7168 18.1903 73.5277 18.4111C73.3386 18.632 73.1969 18.8878 73.111 19.1634C73.0149 19.4376 72.9758 19.728 72.996 20.0173C73.0163 20.3066 73.0956 20.589 73.2291 20.8479C73.3626 21.1067 73.5478 21.3368 73.7736 21.5245C73.9994 21.7122 74.2614 21.8538 74.544 21.9409L80.1634 23.7284L76.6794 28.4034C76.5052 28.6378 76.38 28.9037 76.3112 29.1856C76.2423 29.4676 76.231 29.76 76.278 30.0463C76.325 30.3325 76.4294 30.6068 76.585 30.8534C76.7407 31.1 76.9446 31.3141 77.1851 31.4834C77.6714 31.8206 78.2734 31.9576 78.8618 31.865C79.4503 31.7725 79.9781 31.4577 80.332 30.9884L83.7879 26.3134L87.2438 30.9884C87.5977 31.4577 88.1255 31.7725 88.7139 31.865C89.3024 31.9576 89.9044 31.8206 90.3907 31.4834C90.6312 31.3141 90.8351 31.1 90.9907 30.8534C91.1464 30.6068 91.2507 30.3325 91.2977 30.0463C91.3447 29.76 91.3335 29.4676 91.2646 29.1856C91.1957 28.9037 91.0706 28.6378 90.8964 28.4034L87.4124 23.7284L93.0318 21.9409C93.3144 21.8538 93.5763 21.7122 93.8022 21.5245C94.028 21.3368 94.2131 21.1067 94.3467 20.8479C94.4802 20.589 94.5595 20.3066 94.5798 20.0173C94.6 19.728 94.5609 19.4376 94.4647 19.1634Z" fill="#47CFFF"/>
<path d="M26.2516 7.57336H2.91829C2.29946 7.57336 1.70596 7.8266 1.26838 8.27735C0.830793 8.72811 0.584961 9.33947 0.584961 9.97694V18.795C0.584961 32.225 11.6391 36.6867 13.8558 37.4378C14.3261 37.6186 14.8439 37.6186 15.3141 37.4378C17.5308 36.6867 28.585 32.225 28.585 18.795V9.97694C28.585 9.33947 28.3391 8.72811 27.9015 8.27735C27.464 7.8266 26.8705 7.57336 26.2516 7.57336ZM20.4912 21.2737L16.4662 22.6257L18.96 26.156C19.05 26.2829 19.1146 26.4269 19.1502 26.5797C19.1858 26.7326 19.1915 26.8911 19.1671 27.0463C19.1426 27.2014 19.0886 27.35 19.0079 27.4834C18.9273 27.6168 18.8218 27.7324 18.6975 27.8235C18.5016 27.9804 18.2602 28.065 18.012 28.0638C17.8276 28.0621 17.6461 28.0164 17.4817 27.9304C17.3172 27.8444 17.1743 27.7204 17.0641 27.5681L14.585 24.0378L12.1058 27.5681C11.9956 27.7204 11.8527 27.8444 11.6883 27.9304C11.5238 28.0164 11.3423 28.0621 11.1579 28.0638C10.9097 28.065 10.6684 27.9804 10.4725 27.8235C10.3481 27.7324 10.2426 27.6168 10.162 27.4834C10.0814 27.35 10.0273 27.2014 10.0029 27.0463C9.97844 26.8911 9.98417 26.7326 10.0197 26.5797C10.0553 26.4269 10.1199 26.2829 10.21 26.156L12.7037 22.6257L8.67871 21.2737C8.38545 21.1771 8.14117 20.9649 7.99911 20.6835C7.85706 20.4021 7.82876 20.0743 7.92038 19.7715C8.01734 19.4683 8.22608 19.2165 8.50161 19.0704C8.77714 18.9242 9.09739 18.8955 9.39329 18.9903L13.4183 20.3424V15.9859C13.4183 15.6671 13.5412 15.3615 13.76 15.1361C13.9788 14.9107 14.2755 14.7841 14.585 14.7841C14.8944 14.7841 15.1911 14.9107 15.4099 15.1361C15.6287 15.3615 15.7516 15.6671 15.7516 15.9859V20.3424L19.7766 18.9903C20.0725 18.8955 20.3928 18.9242 20.6683 19.0704C20.9438 19.2165 21.1526 19.4683 21.2495 19.7715C21.3412 20.0743 21.3129 20.4021 21.1708 20.6835C21.0288 20.9649 20.7845 21.1771 20.4912 21.2737Z" fill="#47CFFF"/>
</svg>
