<svg width="26" height="23" viewBox="0 0 26 23" fill="none" xmlns="http://www.w3.org/2000/svg">
<path d="M24 1.15857H2C1.44772 1.15857 1 1.60628 1 2.15857V20.1586C1 20.7109 1.44772 21.1586 2 21.1586H24C24.5523 21.1586 25 20.7109 25 20.1586V2.15857C25 1.60628 24.5523 1.15857 24 1.15857Z" stroke="#FF4F4F" stroke-width="2" stroke-linecap="round" stroke-linejoin="round"/>
<path d="M5.5 6.90857C6.19036 6.90857 6.75 6.34893 6.75 5.65857C6.75 4.96821 6.19036 4.40857 5.5 4.40857C4.80964 4.40857 4.25 4.96821 4.25 5.65857C4.25 6.34893 4.80964 6.90857 5.5 6.90857Z" fill="#FF4F4F"/>
<path d="M9 6.90857C9.69036 6.90857 10.25 6.34893 10.25 5.65857C10.25 4.96821 9.69036 4.40857 9 4.40857C8.30964 4.40857 7.75 4.96821 7.75 5.65857C7.75 6.34893 8.30964 6.90857 9 6.90857Z" fill="#FF4F4F"/>
</svg>
